# OBJ written from /home/athomicus/moveYourRacket/3D/gauge.obj
# Units	meters

o gague
v -1.80701 0.587132 -0.341039
v -1.79793 -0.559181 -0.341039
v -1.1021 -1.49191 -0.341039
v 0.0146947 -1.85477 -0.341039
v 1.12587 -1.50918 -0.341039
v 1.80701 -0.587132 -0.341039
v 1.79793 0.559181 -0.341039
v 1.1021 1.49191 -0.341039
v -0.0146947 1.85477 -0.341039
v -1.12587 1.50918 -0.341039
v -1.80701 0.587132 0.341039
v -1.79793 -0.559181 0.341039
v -1.1021 -1.49191 0.341039
v 0.0146947 -1.85477 0.341039
v 1.12587 -1.50918 0.341039
v 1.80701 -0.587132 0.341039
v 1.79793 0.559181 0.341039
v 1.1021 1.49191 0.341039
v -0.0146947 1.85477 0.341039
v -1.12587 1.50918 0.341039
vn -0.976829 -0.214022 0
vn -0.907636 -0.419757 0
vn -0.665075 -0.746776 0
vn -0.493765 -0.869595 0
vn 0.911064 -0.412264 0
vn 0.979389 -0.201982 0
vn 0.976829 0.214022 0
vn 0.907636 0.419757 0
vn -0.487566 0.873086 0
vn -0.664472 0.747313 0
vn -0.911064 0.412264 0
vn -0.979389 0.201982 0
vn -0.111671 -0.993745 0
vn 0.0991133 -0.995076 0
vn 0.665075 0.746776 0
vn 0.493765 0.869595 0
vn 0 0 1
vn 0.487566 -0.873086 0
vn 0.664472 -0.747313 0
vn 0.111671 0.993745 0
vn -0.0991133 0.995076 0
vn 0 0 -1
vt 0.416243 0.371458
vt 0.605577 0.371458
vt 0.416243 0.671183
vt 0.605577 0.671183
vt 0.421396 0.0562966
vt 0.615652 0.0562966
vt 0.421396 0.360344
vt 0.615652 0.360344
vt 0.00978028 0.370244
vt 0.199678 0.370244
vt 0.00978028 0.669397
vt 0.199678 0.669397
vt 0.617923 0.369532
vt 0.810333 0.369532
vt 0.617923 0.669776
vt 0.810333 0.669776
vt 0.00773025 0.681342
vt 0.202602 0.681342
vt 0.00773025 0.984401
vt 0.202602 0.984401
vt 0.710085 0.16962
vt 0.698535 0.185517
vt 0.710085 0.14997
vt 0.698535 0.134072
vt 0.679846 0.19159
vt 0.679846 0.128
vt 0.661158 0.185517
vt 0.661158 0.134072
vt 0.649607 0.16962
vt 0.649607 0.14997
vt 0.217537 0.373049
vt 0.399998 0.373049
vt 0.217537 0.672695
vt 0.399998 0.672695
vt 0.212447 0.0587327
vt 0.405498 0.0587327
vt 0.212447 0.358011
vt 0.405498 0.358011
vt 0.416602 0.683492
vt 0.606935 0.683492
vt 0.416602 0.981252
vt 0.606935 0.981252
vt 0.773675 0.14997
vt 0.773675 0.16962
vt 0.762124 0.134072
vt 0.743436 0.128
vt 0.762124 0.185517
vt 0.724747 0.134072
vt 0.743436 0.19159
vt 0.713197 0.14997
vt 0.724747 0.185517
vt 0.713197 0.16962
vt 0.0090637 0.0571794
vt 0.199961 0.0571794
vt 0.0090637 0.358462
vt 0.199961 0.358462
vt 0.213 0.684021
vt 0.402821 0.684021
vt 0.213 0.98362
vt 0.402821 0.98362
mtllib gauge.mtl
usemtl gauges
g Default
f 12/1/1 2/2/2 13/3/3
f 3/4/4 13/3/3 2/2/2
f 16/5/5 6/6/6 17/7/7
f 7/8/8 17/7/7 6/6/6
f 20/9/9 10/10/10 11/11/11
f 1/12/12 11/11/11 10/10/10
f 13/13/3 3/14/4 14/15/13
f 4/16/14 14/15/13 3/14/4
f 17/17/7 7/18/8 18/19/15
f 8/20/16 18/19/15 7/18/8
f 11/21/17 12/22/17 20/23/17
f 19/24/17 20/23/17 12/22/17
f 12/22/17 13/25/17 19/24/17
f 18/26/17 19/24/17 13/25/17
f 13/25/17 14/27/17 18/26/17
f 17/28/17 18/26/17 14/27/17
f 14/27/17 15/29/17 17/28/17
f 16/30/17 17/28/17 15/29/17
f 11/31/11 1/32/12 12/33/1
f 2/34/2 12/33/1 1/32/12
f 15/35/18 5/36/19 16/37/5
f 6/38/6 16/37/5 5/36/19
f 19/39/20 9/40/21 20/41/9
f 10/42/10 20/41/9 9/40/21
f 1/43/22 10/44/22 2/45/22
f 3/46/22 2/45/22 10/44/22
f 10/44/22 9/47/22 3/46/22
f 4/48/22 3/46/22 9/47/22
f 9/47/22 8/49/22 4/48/22
f 5/50/22 4/48/22 8/49/22
f 8/49/22 7/51/22 5/50/22
f 6/52/22 5/50/22 7/51/22
f 14/53/13 4/54/14 15/55/18
f 5/56/19 15/55/18 4/54/14
f 18/57/15 8/58/16 19/59/20
f 9/60/21 19/59/20 8/58/16
